<?xml version="1.0" encoding="utf-8" ?>
<svg baseProfile="full" height="200mm" version="1.1" viewBox="0,0,200,200" width="200mm" xmlns="http://www.w3.org/2000/svg" xmlns:ev="http://www.w3.org/2001/xml-events" xmlns:xlink="http://www.w3.org/1999/xlink"><defs /><rect fill="#1a1a1a" height="200" width="200" x="0" y="0" /><text alignment-baseline="middle" fill="#e1ed5e" style="dominant-baseline: central; font-size:9.0px; font-family:Arial;" text-anchor="middle" x="100.0" y="100.0">2019</text><line stroke="#e1ed5e" stroke-width="0.3" x1="100.0" x2="100.0" y1="15.0" y2="10.0" /><path d="M 100.0 14.0 a86.0,86.0 0 0,1 42.46469731375804,11.215312516191453" fill="none" id="id25" stroke="none" /><text fill="#e1ed5e" style="font-size:6.75px; font-family:Arial;" text-anchor="middle"><textPath startOffset="22.20632615414155" xlink:href="#id25">January</textPath></text><path d="M 100.0 79.0 l 0.0 -26.644819980092237 a47.64481998009224,47.64481998009224 0 0,0 0.820127255297956,0.007059094209764629 l -0.4586467760254277 26.64087226249103" fill="red" stroke="none" /><path d="M 100.36148047927253 79.00311137660856 l 0.13758974334164115 -7.992012521615042 a28.993196799974616,28.993196799974616 0 0,0 0.49892233733639135,0.012885692009125541 l -0.2751387158729003 7.988460037463557" fill="red" stroke="none" /><path d="M 101.08401301168833 79.027996857942 l 1.8518293590262567 -35.826665102079076 a56.87449239099394,56.87449239099394 0 0,0 0.9772607289358731,0.058951035952700494 l -2.4682521368017416 35.789480796746076" fill="red" stroke="none" /><path d="M 101.44485096284872 79.0497635885617 l 2.1335395695351878 -30.93617232796944 a52.0096557446321,52.0096557446321 0 0,0 0.8926090561072705,0.06928364205353824 l -2.6657388150047994 30.894863423727436" fill="red" stroke="none" /><path d="M 102.16513564639614 79.11191278185805 l 3.2069603571899314 -30.939062759235078 a52.10482597849528,52.10482597849528 0 0,0 0.8913232571098554,0.10015055334296336 l -3.7390503178095122 30.879276252421516" fill="red" stroke="none" /><path d="M 104.66035177308747 79.52364482259891 l 6.795184205469202 -29.856245206758928 a51.61976332750424,51.61976332750424 0 0,0 0.8646957153912642,0.2046455386350288 l -7.30810360782299 29.73485375598303" fill="red" stroke="none" /><line stroke="#e1ed5e" stroke-width="0.3" x1="143.23703022742887" x2="145.7803849466894" y1="26.81831364943548" y2="22.513508569990506" /><path d="M 143.74570117128098 25.957352633546492 a86.0,86.0 0 0,1 28.547481713284135,27.462654790039103" fill="none" id="id26" stroke="none" /><text fill="#e1ed5e" style="font-size:6.75px; font-family:Arial;" text-anchor="middle"><textPath startOffset="19.985693538727396" xlink:href="#id26">February</textPath></text><path d="M 115.19652480421416 85.50635884689758 l 16.132277404676973 -15.38611246308438 a43.29311173856471,43.29311173856471 0 0,0 0.509689140731302,0.5437008382845334 l -16.39473386737874 15.106142207921792" fill="red" stroke="none" /><path d="M 116.38621287248628 86.86637796730983 l 43.25677667696 -34.67049767073357 a76.43637918566411,76.43637918566411 0 0,0 0.8140325856688685,1.0337387174961081 l -43.84716334322283 33.920766559284424" fill="red" stroke="none" /><path d="M 116.82858285166822 87.43820079747576 l 33.04107131238692 -24.663710956585057 a62.23119003400473,62.23119003400473 0 0,0 0.633387237049337,0.8639394795204112 l -33.460721161949884 24.091309033393152" fill="red" stroke="none" /><line stroke="#e1ed5e" stroke-width="0.3" x1="172.23445277983987" x2="176.4835382374775" y1="55.19839476539836" y2="52.563006222186495" /><path d="M 173.08426987136738 54.67131705675599 a86.0,86.0 0 0,1 12.851231095245387,41.99856678651699" fill="none" id="id27" stroke="none" /><text fill="#e1ed5e" style="font-size:6.75px; font-family:Arial;" text-anchor="middle"><textPath startOffset="22.20632615414155" xlink:href="#id27">March</textPath></text><path d="M 118.21658344932153 89.55222093294921 l 9.777286691617299 -5.607579023444052 a32.27121455541711,32.27121455541711 0 0,0 0.2722190030811693,0.48424723146877285 l -9.872363335990903 5.438448282040485" fill="red" stroke="none" /><path d="M 118.73160827565052 90.50648371742162 l 6.332830017916351 -3.2095922573846467 a28.09973369180041,28.09973369180041 0 0,0 0.21494956458397615,0.43332520580107464 l -6.387139595453735 3.100107463084622" fill="red" stroke="none" /><path d="M 118.89224826269711 90.83032412892265 l 6.719356186155754 -3.261354468383979 a28.46901469571976,28.46901469571976 0 0,0 0.21018511704618942,0.4427034603870572 l -6.7744994970437 3.1452085923563815" fill="red" stroke="none" /><path d="M 119.196687751892 91.48605970444005 l 17.568032788145608 -7.791614063940245 a40.2183512759745,40.2183512759745 0 0,0 0.2752262244365719,0.6352600724551065 l -17.699549722424862 7.488054846898536" fill="red" stroke="none" /><path d="M 119.34039704204932 91.81776055985345 l 24.615783682892722 -10.41406935247379 a47.728068519836995,47.728068519836995 0 0,0 0.313592303930814,0.7593886378868913 l -24.79139767370973 9.988806144133596" fill="red" stroke="none" /><path d="M 119.47837535516314 92.15188598940014 l 8.973624029669438 -3.61560054106034 a30.67463154328766,30.67463154328766 0 0,0 0.1931135307154704,0.4914528717711569 l -9.034531110266608 3.4605986643933986" fill="red" stroke="none" /><path d="M 119.61058180528143 92.48833698450437 l 21.08036910912749 -8.074652275098943 a43.57392236942479,43.57392236942479 0 0,0 0.262263992784842,0.7027371112097215 l -21.21623769041396 7.710592026859888" fill="red" stroke="none" /><path d="M 119.7369772167798 92.82701384747503 l 21.475591199161386 -7.804848564039881 a43.84987261367322,43.84987261367322 0 0,0 0.2517127166886005,0.7116257460776393 l -21.606756996659797 7.4340251915356275" fill="red" stroke="none" /><path d="M 120.18372546131832 94.20196356495316 l 21.71531784627046 -6.2380061754503995 a43.593533371509416,43.593533371509416 0 0,0 0.2009728927675642,0.7230064246345447 l -21.819477509604386 5.863288447396903" fill="red" stroke="none" /><line stroke="#e1ed5e" stroke-width="0.3" x1="184.98032266829074" x2="189.97916517819016" y1="98.17113171792111" y2="98.06355123074" /><path d="M 185.9800911702706 98.14961562048488 a86.0,86.0 0 0,1 -9.607161424134198,41.387399972396054" fill="none" id="id28" stroke="none" /><text fill="#e1ed5e" style="font-size:6.75px; font-family:Arial;" text-anchor="middle"><textPath startOffset="21.466115282336823" xlink:href="#id28">April</textPath></text><path d="M 120.76222939487914 103.15116336523771 l 11.008424007438036 1.6707908279733124 a32.13449330317181,32.13449330317181 0 0,0 -0.08770918002984447,0.5461651477707918 l -10.978033073046904 -1.860035205437309" fill="red" stroke="none" /><path d="M 120.32669344350535 105.2749913415812 l 17.642429830147734 4.578396622015195 a39.226822156924854,39.226822156924854 0 0,0 -0.17523541169238646,0.6521161560806078 l -17.561006342113572 -4.881403711271351" fill="red" stroke="none" /><path d="M 120.13307415673323 105.97154293290107 l 15.56120930208862 4.615511208664799 a37.231271627963096,37.231271627963096 0 0,0 -0.18752722684716705,0.6128498275892716 l -15.479455302735321 -4.882688008806127" fill="red" stroke="none" /><path d="M 119.67450827220406 107.3425965602758 l 12.504405401970592 4.666688631934872 a34.34683997222794,34.34683997222794 0 0,0 -0.21148775649026058,0.5521277965894051 l -12.422223365886826 -4.881239995357421" fill="red" stroke="none" /><path d="M 119.41010516605496 108.01547362559984 l 58.230315498164885 24.046420876799505 a84.0,84.0 0 0,0 -0.5633960752307643,1.331701897335346 l -57.80776844174181 -25.045197299801014" fill="red" stroke="none" /><path d="M 118.97047184881838 109.00673069616215 l 6.246327095405254 2.965608153387082 a27.914581252847476,27.914581252847476 0 0,0 -0.20982027351075822,0.43229191014431795 l -6.194353565279782 -3.0726890194966754" fill="red" stroke="none" /><line stroke="#e1ed5e" stroke-width="0.3" x1="174.80103733775053" x2="179.2010983576182" y1="140.37084112569926" y2="142.7455964860345" /><path d="M 175.68104954172406 140.8457921977663 a86.0,86.0 0 0,1 -30.038265399797805,32.042727171017184" fill="none" id="id29" stroke="none" /><text fill="#e1ed5e" style="font-size:6.75px; font-family:Arial;" text-anchor="middle"><textPath startOffset="22.206326154141568" xlink:href="#id29">May</textPath></text><path d="M 118.12598468904814 110.60418214915192 l 13.1664988606087 7.70275130315295 a36.254149267810206,36.254149267810206 0 0,0 -0.3197600847471221,0.5359362946018872 l -13.03195790016335 -7.928249691640941" fill="red" stroke="none" /><path d="M 117.14729908036423 112.12312394758627 l 33.76750839639478 23.873595939049686 a62.35448230073255,62.35448230073255 0 0,0 -0.62716793799393,0.8710814122155791 l -33.35156066602525 -24.451310956716394" fill="red" stroke="none" /><path d="M 116.93607887273984 112.41649034213515 l 24.299629944799133 17.81499264346813 a51.13048254411141,51.13048254411141 0 0,0 -0.5264947989813028,0.7053258217858509 l -23.989373879122738 -18.230631344763296" fill="red" stroke="none" /><path d="M 116.27256486870786 113.27417163493432 l 11.93668277217802 9.737221952905116 a36.404476198941296,36.404476198941296 0 0,0 -0.40028281791027803,0.48216644025739025 l -11.7673039543742 -9.941249650276276" fill="red" stroke="none" /><path d="M 115.80600337817218 113.82643327865902 l 42.783335090913724 37.425079187945634 a77.84232853891025,77.84232853891025 0 0,0 -0.890891180337794,1.0009256853820707 l -42.13278506092759 -38.15597904306857" fill="red" stroke="none" /><path d="M 115.56566222782051 114.09645910891815 l 33.62097258225386 30.4475748137932 a66.35884268164477,66.35884268164477 0 0,0 -0.774039851243604,0.8400673837976614 l -33.091886323014535 -31.021793452392195" fill="red" stroke="none" /><path d="M 115.07121518719521 114.62390073753431 l 19.1390382691295 18.57099061908546 a47.66804226862864,47.66804226862864 0 0,0 -0.5764641056841542,0.5839550955683905 l -18.816533538389812 -18.897686208634514" fill="red" stroke="none" /><path d="M 114.29624159901734 115.38237550388516 l 30.925933920997593 33.27548188705925 a66.42764668901437,66.42764668901437 0 0,0 -0.8442651823406627,0.7712162267339298 l -30.348569189190066 -33.80289088037976" fill="red" stroke="none" /><line stroke="#e1ed5e" stroke-width="0.3" x1="143.8653032363475" x2="146.44561519142675" y1="172.8068346515853" y2="177.08958963109032" /><path d="M 144.38136562736335 173.6633856474863 a86.0,86.0 0 0,1 -40.68145358897372,12.25698825130547" fill="none" id="id30" stroke="none" /><text fill="#e1ed5e" style="font-size:6.75px; font-family:Arial;" text-anchor="middle"><textPath startOffset="21.466115282336833" xlink:href="#id30">June</textPath></text><path d="M 101.26447882468166 120.96189622390904 l 1.63426892734003 27.09209121432718 a48.14133823694574,48.14133823694574 0 0,0 -0.827599881241895,0.04277746067750506 l -1.1676809776846553 -27.116208481766886" fill="red" stroke="none" /><line stroke="#e1ed5e" stroke-width="0.3" x1="102.19456741930631" x2="102.32365962044197" y1="184.97166512339345" y2="189.96999836594603" /><path d="M 102.22038585953345 185.97133177190398 a86.0,86.0 0 0,1 -42.740103519485714,-10.115201625700543" fill="none" id="id31" stroke="none" /><text fill="#e1ed5e" style="font-size:6.75px; font-family:Arial;" text-anchor="middle"><textPath startOffset="22.20632615414155" xlink:href="#id31">July</textPath></text><path d="M 92.06813273071674 119.44442032107085 l -16.290373167991287 39.934715535669824 a64.12954628636011,64.12954628636011 0 0,0 -1.0185254274276012,-0.4257437112695968 l 16.97537005491635 -39.64838678138025" fill="red" stroke="none" /><path d="M 91.40352486487194 119.15986991738527 l -17.03896142197857 37.9765286632906 a62.62382653785457,62.62382653785457 0 0,0 -0.9797110116759442,-0.4497372736697423 l 17.690140429421934 -37.67760431928678" fill="red" stroke="none" /><path d="M 90.10565033884886 118.52300852407294 l -20.008525899603672 37.45754986279453 a63.46656508830034,63.46656508830034 0 0,0 -0.959182855622889,-0.5230229709156027 l 20.6503315670952 -37.10758624011916" fill="red" stroke="none" /><line stroke="#e1ed5e" stroke-width="0.3" x1="58.666819895761336" x2="56.23545636021788" y1="174.27360380694188" y2="178.64263932499728" /><path d="M 58.180547188652646 175.14741091055294 a86.0,86.0 0 0,1 -31.652253787137756,-30.449443065178592" fill="none" id="id32" stroke="none" /><text fill="#e1ed5e" style="font-size:6.75px; font-family:Arial;" text-anchor="middle"><textPath startOffset="22.20632615414155" xlink:href="#id32">August</textPath></text><path d="M 88.24862548938628 117.40417183066458 l -23.948831525938914 35.46900651022738 a63.79716058665993,63.79716058665993 0 0,0 -0.9048354791116382,-0.6223540932633755 l 24.555823889673444 -35.0515116275989" fill="red" stroke="none" /><line stroke="#e1ed5e" stroke-width="0.3" x1="26.63291911575756" x2="22.317208475507996" y1="142.92168965132927" y2="145.44649492493687" /><path d="M 25.769776987707644 143.4266507060508 a86.0,86.0 0 0,1 -11.730757126820373,-40.83630448921669" fill="none" id="id33" stroke="none" /><text fill="#e1ed5e" style="font-size:6.75px; font-family:Arial;" text-anchor="middle"><textPath startOffset="21.46611528233685" xlink:href="#id33">September</textPath></text><line stroke="#e1ed5e" stroke-width="0.3" x1="15.007084014347285" x2="10.007500721073583" y1="101.09737516637583" y2="101.16192664675087" /><path d="M 14.007167355692545 101.11028546245083 a86.0,86.0 0 0,1 10.666146001902534,-42.60595125391555" fill="none" id="id34" stroke="none" /><text fill="#e1ed5e" style="font-size:6.75px; font-family:Arial;" text-anchor="middle"><textPath startOffset="22.20632615414155" xlink:href="#id34">October</textPath></text><line stroke="#e1ed5e" stroke-width="0.3" x1="26.266209847984257" x2="21.92892807433627" y1="57.711370442889674" y2="55.22380399835377" /><path d="M 25.39875349325466 57.213857153982495 a86.0,86.0 0 0,1 29.58750427330802,-30.492523968695096" fill="none" id="id35" stroke="none" /><text fill="#e1ed5e" style="font-size:6.75px; font-family:Arial;" text-anchor="middle"><textPath startOffset="21.46611528233685" xlink:href="#id35">November</textPath></text><line stroke="#e1ed5e" stroke-width="0.3" x1="56.762969772571076" x2="54.21961505331055" y1="26.818313649435495" y2="22.513508569990535" /><path d="M 56.25429882871897 25.957352633546506 a86.0,86.0 0 0,1 42.265352541879196,-11.944610805530505" fill="none" id="id36" stroke="none" /><text fill="#e1ed5e" style="font-size:6.75px; font-family:Arial;" text-anchor="middle"><textPath startOffset="22.20632615414155" xlink:href="#id36">December</textPath></text></svg>