<?xml version="1.0" encoding="utf-8" ?>
<svg baseProfile="full" height="200mm" version="1.1" viewBox="0,0,200,200" width="200mm" xmlns="http://www.w3.org/2000/svg" xmlns:ev="http://www.w3.org/2001/xml-events" xmlns:xlink="http://www.w3.org/1999/xlink"><defs /><rect fill="#1a1a1a" height="200" width="200" x="0" y="0" /><text alignment-baseline="middle" fill="#e1ed5e" style="dominant-baseline: central; font-size:9.0px; font-family:Arial;" text-anchor="middle" x="100.0" y="100.0">2017</text><line stroke="#e1ed5e" stroke-width="0.3" x1="100.0" x2="100.0" y1="15.0" y2="10.0" /><path d="M 100.0 14.0 a86.0,86.0 0 0,1 42.46469731375804,11.215312516191453" fill="none" id="id1" stroke="none" /><text fill="#e1ed5e" style="font-size:6.75px; font-family:Arial;" text-anchor="middle"><textPath startOffset="22.20632615414155" xlink:href="#id1">January</textPath></text><line stroke="#e1ed5e" stroke-width="0.3" x1="143.23703022742887" x2="145.7803849466894" y1="26.81831364943548" y2="22.513508569990506" /><path d="M 143.74570117128098 25.957352633546492 a86.0,86.0 0 0,1 28.547481713284135,27.462654790039103" fill="none" id="id2" stroke="none" /><text fill="#e1ed5e" style="font-size:6.75px; font-family:Arial;" text-anchor="middle"><textPath startOffset="19.985693538727396" xlink:href="#id2">February</textPath></text><line stroke="#e1ed5e" stroke-width="0.3" x1="172.23445277983987" x2="176.4835382374775" y1="55.19839476539836" y2="52.563006222186495" /><path d="M 173.08426987136738 54.67131705675599 a86.0,86.0 0 0,1 12.851231095245387,41.99856678651699" fill="none" id="id3" stroke="none" /><text fill="#e1ed5e" style="font-size:6.75px; font-family:Arial;" text-anchor="middle"><textPath startOffset="22.20632615414155" xlink:href="#id3">March</textPath></text><line stroke="#e1ed5e" stroke-width="0.3" x1="184.98032266829074" x2="189.97916517819016" y1="98.17113171792111" y2="98.06355123074" /><path d="M 185.9800911702706 98.14961562048488 a86.0,86.0 0 0,1 -9.607161424134198,41.387399972396054" fill="none" id="id4" stroke="none" /><text fill="#e1ed5e" style="font-size:6.75px; font-family:Arial;" text-anchor="middle"><textPath startOffset="21.466115282336823" xlink:href="#id4">April</textPath></text><line stroke="#e1ed5e" stroke-width="0.3" x1="174.80103733775053" x2="179.2010983576182" y1="140.37084112569926" y2="142.7455964860345" /><path d="M 175.68104954172406 140.8457921977663 a86.0,86.0 0 0,1 -30.038265399797805,32.042727171017184" fill="none" id="id5" stroke="none" /><text fill="#e1ed5e" style="font-size:6.75px; font-family:Arial;" text-anchor="middle"><textPath startOffset="22.206326154141568" xlink:href="#id5">May</textPath></text><line stroke="#e1ed5e" stroke-width="0.3" x1="143.8653032363475" x2="146.44561519142675" y1="172.8068346515853" y2="177.08958963109032" /><path d="M 144.38136562736335 173.6633856474863 a86.0,86.0 0 0,1 -40.68145358897372,12.25698825130547" fill="none" id="id6" stroke="none" /><text fill="#e1ed5e" style="font-size:6.75px; font-family:Arial;" text-anchor="middle"><textPath startOffset="21.466115282336833" xlink:href="#id6">June</textPath></text><path d="M 110.8373102113329 117.98757091392108 l 28.17243214513484 46.76009186286046 a75.5911359471057,75.5911359471057 0 0,0 -1.120304293914319,0.6618955238043366 l -27.36335998019214 -47.23810595895855" fill="red" stroke="none" /><path d="M 110.5260780823613 118.17145234162733 l 24.71326711780427 42.663179212931105 a70.3040812934449,70.3040812934449 0 0,0 -1.0523892688126983,0.5975740925046189 l -23.975229082070374 -43.08225647123036" fill="red" stroke="none" /><path d="M 110.21172684928248 118.3499491758327 l 30.35265124039008 54.54215685881451 a83.41898999609238,83.41898999609238 0 0,0 -1.26072783246272,0.6874493352181892 l -29.409300596058713 -55.05654684579247" fill="red" stroke="none" /><path d="M 109.57404056367764 118.69057910512821 l 26.592039189503186 51.9133597494557 a79.3278104229233,79.3278104229233 0 0,0 -1.2206891404881166,0.612078876131611 l -25.69449614133231 -52.36340646649662" fill="red" stroke="none" /><path d="M 108.92500713936063 119.00905698771935 l 26.775021418081884 57.02717096315804 a84.0,84.0 0 0,0 -1.3141280169303222,0.6032517186637025 l -25.789425405384144 -57.479609752155824" fill="red" stroke="none" /><path d="M 106.57524785965236 119.94407469862006 l 18.765484797437846 56.919562356346944 a80.93312939035421,80.93312939035421 0 0,0 -1.3268356630520013,0.4248108792200182 l -17.782927789294906 -57.23414608222667" fill="red" stroke="none" /><path d="M 105.88484417918355 120.15858648285463 l 16.22841649574372 55.590586164784625 a78.91092100893985,78.91092100893985 0 0,0 -1.307173805484268,0.3694203744360803 l -15.269111522154846 -55.86169533255922" fill="red" stroke="none" /><path d="M 104.83641907484287 120.43548508189849 l 5.361064963209717 22.65228909724295 a44.278041560338075,44.278041560338075 0 0,0 -0.7431960702078385,0.16914900594063637 l -4.970348743609017 -22.74121483676127" fill="red" stroke="none" /><path d="M 104.13013068566511 120.58985236759428 l 6.545147142420867 32.629382371450355 a54.27935613947865,54.27935613947865 0 0,0 -0.9176632995100528,0.17587235540816212 l -5.98251622833911 -32.737211925206985" fill="red" stroke="none" /><line stroke="#e1ed5e" stroke-width="0.3" x1="102.19456741930631" x2="102.32365962044197" y1="184.97166512339345" y2="189.96999836594603" /><path d="M 102.22038585953345 185.97133177190398 a86.0,86.0 0 0,1 -42.740103519485714,-10.115201625700543" fill="none" id="id7" stroke="none" /><text fill="#e1ed5e" style="font-size:6.75px; font-family:Arial;" text-anchor="middle"><textPath startOffset="22.20632615414155" xlink:href="#id7">July</textPath></text><path d="M 90.10565033884886 118.52300852407294 l -18.80120043489543 35.19734068887301 a60.90410917890171,60.90410917890171 0 0,0 -0.9204559484211974,-0.5019059733167998 l 19.404279195185268 -34.86849406379645" fill="red" stroke="none" /><line stroke="#e1ed5e" stroke-width="0.3" x1="58.666819895761336" x2="56.23545636021788" y1="174.27360380694188" y2="178.64263932499728" /><path d="M 58.180547188652646 175.14741091055294 a86.0,86.0 0 0,1 -31.652253787137756,-30.449443065178592" fill="none" id="id8" stroke="none" /><text fill="#e1ed5e" style="font-size:6.75px; font-family:Arial;" text-anchor="middle"><textPath startOffset="22.20632615414155" xlink:href="#id8">August</textPath></text><path d="M 89.7882731507175 118.34994917583269 l -16.303999733057218 29.297450948309574 a54.528510843223195,54.528510843223195 0 0,0 -0.8162430772151206,-0.46348412187849336 l 16.805891577193545 -29.012463660636445" fill="red" stroke="none" /><path d="M 89.4739219176387 118.17145234162733 l -16.748478765136223 28.913350375523482 a54.413969696580544,54.413969696580544 0 0,0 -0.8064464587839935,-0.4764627826177086 l 17.243693094948597 -28.620769020612023" fill="red" stroke="none" /><path d="M 89.1626897886671 117.98757091392108 l -22.352765128524723 37.100714109955234 a64.31407503756282,64.31407503756282 0 0,0 -0.9433368023182681,-0.5794745115415235 l 22.9880811307753 -36.71045113158533" fill="red" stroke="none" /><path d="M 88.8546689885994 117.79835938074946 l -26.18545044926787 41.81643929338164 a70.33854892888658,70.33854892888658 0 0,0 -1.0206398036306963,-0.651420612578062 l 26.90137205494549 -41.35950425197978" fill="red" stroke="none" /><path d="M 88.54995079064634 117.60387380957326 l -24.663454772674005 37.91881917604252 a66.2340894572793,66.2340894572793 0 0,0 -0.9503812837809049,-0.6298608921825464 l 25.31251075519487 -37.488660262768654" fill="red" stroke="none" /><path d="M 84.67929136418377 114.36230785411682 l -20.429052649141035 19.151094788723043 a49.00197535439297,49.00197535439297 0 0,0 -0.5715814227792057,-0.6203387457248069 l 20.75568047991597 -18.796604788196895" fill="red" stroke="none" /><path d="M 84.19399662182784 113.82643327865904 l -21.19021355907892 18.53631603924293 a49.153510668939084,49.153510668939084 0 0,0 -0.5515901414299113,-0.6416239490935357 l 21.50614621007961 -18.168814990987862" fill="red" stroke="none" /><path d="M 82.64656182679789 111.8261652097733 l -24.127610622105138 16.44268452661593 a50.19766204293994,50.19766204293994 0 0,0 -0.480455913632022,-0.7182164017654741 l 24.407069641147892 -16.024931210644635" fill="red" stroke="none" /><path d="M 82.05923443525364 110.91462005526583 l -23.690906542932527 14.412832203159969 a48.73064703432663,48.73064703432663 0 0,0 -0.4298022747788825,-0.7203733347100642 l 23.935489693409643 -14.002896774563792" fill="red" stroke="none" /><line stroke="#e1ed5e" stroke-width="0.3" x1="26.63291911575756" x2="22.317208475507996" y1="142.92168965132927" y2="145.44649492493687" /><path d="M 25.769776987707644 143.4266507060508 a86.0,86.0 0 0,1 -11.730757126820373,-40.83630448921669" fill="none" id="id9" stroke="none" /><text fill="#e1ed5e" style="font-size:6.75px; font-family:Arial;" text-anchor="middle"><textPath startOffset="21.46611528233685" xlink:href="#id9">September</textPath></text><path d="M 81.69416730710424 110.29060199501025 l -26.592385955233464 14.948878019037528 a51.50612962701367,51.50612962701367 0 0,0 -0.42780400308567734,-0.7765885296731377 l 26.845766367770658 -14.488918970966568" fill="red" stroke="none" /><path d="M 81.35079622478065 109.6543875284942 l -28.41986378961562 14.712498283522113 a53.00228528656893,53.00228528656893 0 0,0 -0.41246209361423225,-0.8138268409898494 l 28.668904553016116 -14.221117230829577" fill="red" stroke="none" /><path d="M 80.20201598880116 107.00284435728193 l -25.247232129172247 8.930325277197499 a47.780094095071064,47.780094095071064 0 0,0 -0.26758938876074595,-0.7777400195551043 l 25.397212348876224 -8.494412554553097" fill="red" stroke="none" /><path d="M 79.86692584326677 105.97154293290107 l -26.726804700887648 7.92726736553726 a48.87765516330421,48.87765516330421 0 0,0 -0.23230237509712828,-0.8086750429216302 l 26.85929971287088 -7.466034847111033" fill="red" stroke="none" /><line stroke="#e1ed5e" stroke-width="0.3" x1="15.007084014347285" x2="10.007500721073583" y1="101.09737516637583" y2="101.16192664675087" /><path d="M 14.007167355692545 101.11028546245083 a86.0,86.0 0 0,1 10.666146001902534,-42.60595125391555" fill="none" id="id10" stroke="none" /><text fill="#e1ed5e" style="font-size:6.75px; font-family:Arial;" text-anchor="middle"><textPath startOffset="22.20632615414155" xlink:href="#id10">October</textPath></text><line stroke="#e1ed5e" stroke-width="0.3" x1="26.266209847984257" x2="21.92892807433627" y1="57.711370442889674" y2="55.22380399835377" /><path d="M 25.39875349325466 57.213857153982495 a86.0,86.0 0 0,1 29.58750427330802,-30.492523968695096" fill="none" id="id11" stroke="none" /><text fill="#e1ed5e" style="font-size:6.75px; font-family:Arial;" text-anchor="middle"><textPath startOffset="21.46611528233685" xlink:href="#id11">November</textPath></text><line stroke="#e1ed5e" stroke-width="0.3" x1="56.762969772571076" x2="54.21961505331055" y1="26.818313649435495" y2="22.513508569990535" /><path d="M 56.25429882871897 25.957352633546506 a86.0,86.0 0 0,1 42.265352541879196,-11.944610805530505" fill="none" id="id12" stroke="none" /><text fill="#e1ed5e" style="font-size:6.75px; font-family:Arial;" text-anchor="middle"><textPath startOffset="22.20632615414155" xlink:href="#id12">December</textPath></text></svg>