<?xml version="1.0" encoding="utf-8" ?>
<svg baseProfile="full" height="200mm" version="1.1" viewBox="0,0,200,200" width="200mm" xmlns="http://www.w3.org/2000/svg" xmlns:ev="http://www.w3.org/2001/xml-events" xmlns:xlink="http://www.w3.org/1999/xlink"><defs /><rect fill="#1a1a1a" height="200" width="200" x="0" y="0" /><text alignment-baseline="middle" fill="#e1ed5e" style="dominant-baseline: central; font-size:9.0px; font-family:Arial;" text-anchor="middle" x="100.0" y="100.0">2024</text><line stroke="#e1ed5e" stroke-width="0.3" x1="100.0" x2="100.0" y1="15.0" y2="10.0" /><path d="M 100.0 14.0 a86.0,86.0 0 0,1 42.35913384403234,11.155469271406648" fill="none" id="id85" stroke="none" /><text fill="#e1ed5e" style="font-size:6.75px; font-family:Arial;" text-anchor="middle"><textPath startOffset="22.145653131862478" xlink:href="#id85">January</textPath></text><line stroke="#e1ed5e" stroke-width="0.3" x1="143.13028292997686" x2="145.6673583964461" y1="26.7553504044142" y2="22.446841604673864" /><path d="M 143.63769802327073 25.89364864446614 a86.0,86.0 0 0,1 29.32050498858742,28.57503671076993" fill="none" id="id86" stroke="none" /><text fill="#e1ed5e" style="font-size:6.75px; font-family:Arial;" text-anchor="middle"><textPath startOffset="20.669276256404974" xlink:href="#id86">February</textPath></text><line stroke="#e1ed5e" stroke-width="0.3" x1="172.87174338648825" x2="177.1583165268699" y1="56.24261187166439" y2="53.66864786411523" /><path d="M 173.72905801456457 55.72781907015455 a86.0,86.0 0 0,1 12.242430191666344,42.057860355516425" fill="none" id="id87" stroke="none" /><text fill="#e1ed5e" style="font-size:6.75px; font-family:Arial;" text-anchor="middle"><textPath startOffset="22.145653131862474" xlink:href="#id87">March</textPath></text><line stroke="#e1ed5e" stroke-width="0.3" x1="184.99686870605535" x2="189.99668451229388" y1="99.2704041080226" y2="99.22748670261217" /><path d="M 185.99683186730306 99.26182062694052 a86.0,86.0 0 0,1 -10.086455211305974,41.156179273409016" fill="none" id="id88" stroke="none" /><text fill="#e1ed5e" style="font-size:6.75px; font-family:Arial;" text-anchor="middle"><textPath startOffset="21.40746469413373" xlink:href="#id88">April</textPath></text><path d="M 119.94978838288452 106.5578916946017 l 33.354071278153405 10.964145725165265 a56.10992113791767,56.10992113791767 0 0,0 -0.3086435183740193,0.9124497197136091 l -33.16094233820702 -11.535097119353035" fill="red" stroke="none" /><line stroke="#e1ed5e" stroke-width="0.3" x1="174.33088141563837" x2="178.70328620479359" y1="141.23008692659167" y2="143.65538615756765" /><path d="M 175.20536237346943 141.71514677278685 a86.0,86.0 0 0,1 -30.301960400862466,31.631185727798858" fill="none" id="id89" stroke="none" /><text fill="#e1ed5e" style="font-size:6.75px; font-family:Arial;" text-anchor="middle"><textPath startOffset="22.145653131862474" xlink:href="#id89">May</textPath></text><path d="M 114.65682725009322 115.03919595460226 l 22.548466489959683 23.136713030177088 a53.306978052575595,53.306978052575595 0 0,0 -0.6608225277361606,0.6330530331609058 l -22.14797147635821 -23.520378193643573" fill="red" stroke="none" /><path d="M 111.5731344415666 117.5232005979908 l 12.105327324593986 18.329008453520167 a42.96568916571423,42.96568916571423 0 0,0 -0.6189399186956138,0.4011893774785475 l -11.788901773641362 -18.534111672702608" fill="red" stroke="none" /><line stroke="#e1ed5e" stroke-width="0.3" x1="143.1302829299769" x2="145.66735839644613" y1="173.24464959558577" y2="177.55315839532614" /><path d="M 143.63769802327073 174.10635135553383 a86.0,86.0 0 0,1 -40.68552437913181,11.842963189579606" fill="none" id="id90" stroke="none" /><text fill="#e1ed5e" style="font-size:6.75px; font-family:Arial;" text-anchor="middle"><textPath startOffset="21.407464694133747" xlink:href="#id90">June</textPath></text><path d="M 104.64783097203109 120.47920084513623 l 6.343963464052525 27.952673562430284 a49.66352790081888,49.66352790081888 0 0,0 -0.8330171928548838,0.18155222004196384 l -5.863183854578505 -28.057457240605967" fill="red" stroke="none" /><path d="M 101.08105385017728 120.97215588758144 l 1.6153344682204136 31.33705714340364 a52.378662429319164,52.378662429319164 0 0,0 -0.8983545191059968,0.03857920843199975 l -1.0771541885135871 -31.360168920261472" fill="red" stroke="none" /><line stroke="#e1ed5e" stroke-width="0.3" x1="101.45913802915013" x2="101.54496967792366" y1="184.9874750549273" y2="189.98673829345242" /><path d="M 101.47630435890484 185.9873277026323 a86.0,86.0 0 0,1 -42.54439059252881,-10.42667462771756" fill="none" id="id91" stroke="none" /><text fill="#e1ed5e" style="font-size:6.75px; font-family:Arial;" text-anchor="middle"><textPath startOffset="22.145653131862474" xlink:href="#id91">July</textPath></text><line stroke="#e1ed5e" stroke-width="0.3" x1="58.13341422392154" x2="55.670673884152215" y1="173.97424548756322" y2="178.32567169271397" /><path d="M 57.64086615596767 174.84453072859336 a86.0,86.0 0 0,1 -31.369924170532244,-30.572349798747897" fill="none" id="id92" stroke="none" /><text fill="#e1ed5e" style="font-size:6.75px; font-family:Arial;" text-anchor="middle"><textPath startOffset="22.145653131862474" xlink:href="#id92">August</textPath></text><path d="M 87.54013794807813 116.9041958592261 l -17.285958920555387 23.451723140268136 a50.13396118022602,50.13396118022602 0 0,0 -0.688379898113421,-0.5165731089183534 l 17.685991807579576 -23.15153100408577" fill="red" stroke="none" /><path d="M 86.68645165197938 116.24036423190432 l -20.723159796988366 25.27888541367593 a53.68748077979202,53.68748077979202 0 0,0 -0.7077177435255483,-0.5904033125027911 l 21.154051874675808 -24.91941991726127" fill="red" stroke="none" /><path d="M 86.13680546590413 115.77377054828092 l -22.698309555170297 25.826509602568986 a55.38345321392142,55.38345321392142 0 0,0 -0.7087367054224888,-0.6337567322761846 l 23.13831128741616 -25.43305734040942" fill="red" stroke="none" /><path d="M 85.60350026404147 115.28858382429668 l -25.918015564887078 27.52403436881804 a58.80629575556967,58.80629575556967 0 0,0 -0.7289950852150745,-0.6983608011000726 l 26.386683135967466 -27.075061437412387" fill="red" stroke="none" /><path d="M 84.3458050057657 113.99807769240083 l -25.29999921862733 22.62341530883353 a54.93978315632713,54.93978315632713 0 0,0 -0.622621930462854,-0.7084294637353773 l 25.684632213048776 -22.18577356728685" fill="red" stroke="none" /><path d="M 83.8745106332314 113.45245675266167 l -25.523324504760936 21.292465070364006 a54.23866968679705,54.23866968679705 0 0,0 -0.5903057370087034,-0.7200770167803815 l 25.88507706100827 -20.851185771885127" fill="red" stroke="none" /><path d="M 83.42222388311158 112.89097897827486 l -27.54218858195012 21.416972428762755 a55.88923702086487,55.88923702086487 0 0,0 -0.5824404290091973,-0.7624332181619957 l 27.90578098831362 -20.94101829735989" fill="red" stroke="none" /><path d="M 82.78059297857968 112.02048342749411 l -28.244373150502888 19.71676602761292 a55.445543648670714,55.445543648670714 0 0,0 -0.538112897307284,-0.7851227988700961 l 28.5786757846255 -19.229008493672772" fill="red" stroke="none" /><path d="M 82.37810715431573 111.42229804090321 l -29.991889240518315 19.440380253978113 a56.74131789168917,56.74131789168917 0 0,0 -0.5227829126606292,-0.8219015706362915 l 30.321189844804834 -18.92266500866315" fill="red" stroke="none" /><line stroke="#e1ed5e" stroke-width="0.3" x1="26.387840678322732" x2="22.057713659400548" y1="142.50000000000003" y2="145.00000000000006" /><path d="M 25.521815274538298 143.00000000000003 a86.0,86.0 0 0,1 -11.493303480769221,-40.785679425670985" fill="none" id="id93" stroke="none" /><text fill="#e1ed5e" style="font-size:6.75px; font-family:Arial;" text-anchor="middle"><textPath startOffset="21.40746469413373" xlink:href="#id93">September</textPath></text><path d="M 81.4637452351635 109.86951160357371 l -31.14119551322594 16.580932575979958 a56.28032572244985,56.28032572244985 0 0,0 -0.44673696063780954,-0.8566770264992085 l 31.4212405428387 -16.043909306376246" fill="red" stroke="none" /><path d="M 81.1358732173502 109.22738970284198 l -33.68509574442932 16.477068310274152 a58.499059393707604,58.499059393707604 0 0,0 -0.43350795388075997,-0.9058648931326038 l 33.96298295626999 -15.896390915076443" fill="red" stroke="none" /><path d="M 80.41425534168474 107.57618678355246 l -35.784247382428596 13.842115620711235 a59.36817073544145,59.36817073544145 0 0,0 -0.35951474645780496,-0.9536555779006715 l 36.016592812700836 -13.225791762616417" fill="red" stroke="none" /><path d="M 80.05021161711548 106.5578916946017 l -31.461208809513163 10.341924234697293 a54.117413193545296,54.117413193545296 0 0,0 -0.2825322846130513,-0.8850283574848329 l 31.63410580990347 -9.800326843521068" fill="red" stroke="none" /><path d="M 79.48165901384964 104.47187691870673 l -37.6928420798015 8.214979496193019 a59.57766493938852,59.57766493938852 0 0,0 -0.20920920935092244,-1.0011418013304896 l 37.82830899997679 -7.5667212435771205" fill="red" stroke="none" /><path d="M 79.34024301695615 103.76489593502545 l -38.36927122515375 6.992159364896239 a60.00117007133911,60.00117007133911 0 0,0 -0.175961095691567,-1.014896840107432 l 38.48364713833755 -6.332469491868214" fill="red" stroke="none" /><path d="M 79.17382384314188 102.69636545807758 l -45.183707095194826 5.849935492803305 a66.56082892281833,66.56082892281833 0 0,0 -0.13698191251770486,-1.1344067400331699 l 45.277471093972196 -5.073435075846736" fill="red" stroke="none" /><path d="M 79.13060592940153 102.33845913500099 l -22.992978534564074 2.576411203561644 a44.13687439091033,44.13687439091033 0 0,0 -0.07790706366706039,-0.75368016938794 l 23.0338179907128 -2.1813265118907728" fill="red" stroke="none" /><path d="M 79.0935383218832 101.97986365728391 l -62.7193850343504 5.9395909718517395 a84.0,84.0 0 0,0 -0.12362550920903681,-1.4367158104973519 l 62.812104166257186 -4.862054113978725" fill="red" stroke="none" /><path d="M 79.06263194458094 101.62068470465958 l -11.166499230136717 0.8643576622894343 a32.19990264355018,32.19990264355018 0 0,0 -0.03792847820342612,-0.5514717489210841 l 11.17969166950521 -0.6725424892140068" fill="red" stroke="none" /><path d="M 79.01933749520258 100.90099992219065 l -47.3538806751613 2.0335793873996915 a68.39752588608684,68.39752588608684 0 0,0 -0.040306704356262234,-1.1734857188605017 l 47.381812066514414 -1.22038740397507" fill="red" stroke="none" /><path d="M 79.00696218219943 100.54070618675478 l -12.678459177352325 0.32655213481773304 a33.682663892437716,33.682663892437716 0 0,0 -0.009926069973213941,-0.578143813257477 l 12.682196678924205 -0.10886140559120364" fill="red" stroke="none" /><line stroke="#e1ed5e" stroke-width="0.3" x1="15.003131293944662" x2="10.003315487706104" y1="100.72959589197737" y2="100.7725132973878" /><path d="M 14.003168132696942 100.73817937305945 a86.0,86.0 0 0,1 10.791469493833615,-42.45332614584628" fill="none" id="id94" stroke="none" /><text fill="#e1ed5e" style="font-size:6.75px; font-family:Arial;" text-anchor="middle"><textPath startOffset="22.145653131862435" xlink:href="#id94">October</textPath></text><path d="M 79.00077361379809 100.18025310272382 l -34.730559322895665 0.29812008129019335 a55.73183880050182,55.73183880050182 0 0,0 0.0,-0.956746368028009 l 34.730559322895665 0.2981200812901806" fill="red" stroke="none" /><path d="M 79.13060592940154 97.66154086499901 l -23.37751317278474 -2.619499111836783 a44.52381554384063,44.52381554384063 0 0,0 0.09162982950305443,-0.7588264338397692 l 23.32910125702202 3.020419222599989" fill="red" stroke="none" /><path d="M 79.17382384314186 97.30363454192245 l -56.51384357909916 -7.316848497879489 a77.9855313919578,77.9855313919578 0 0,0 0.1832863620737662,-1.3261688119666113 l 56.379912700470186 8.285905618046167" fill="red" stroke="none" /><path d="M 79.22317932658666 96.9465228501225 l -22.60581551745422 -3.3222764070549378 a43.84864144175859,43.84864144175859 0 0,0 0.11584081899775676,-0.743781156562133 l 22.545453206318196 3.7098457455485208" fill="red" stroke="none" /><path d="M 79.2786578344484 96.59031103205396 l -25.43794726232154 -4.185804541740792 a46.780033370465404,46.780033370465404 0 0,0 0.1371884234685467,-0.7912663701617372 l 25.36234402136076 4.621863944823122" fill="red" stroke="none" /><path d="M 79.34024301695615 96.23510406497455 l -54.58630756993455 -9.947443604819057 a76.4852828089625,76.4852828089625 0 0,0 0.24647822254905324,-1.2896782121597687 l 54.407503055103334 10.88302438201214" fill="red" stroke="none" /><path d="M 79.56144815229197 95.17655741523228 l -23.844452482565774 -5.627225860807522 a45.49946091410744,45.49946091410744 0 0,0 0.18592482301021768,-0.758636724883111 l 23.74434013303926 6.035718410298752" fill="red" stroke="none" /><path d="M 79.64726062577567 94.8264132398404 l -23.12698315822682 -5.878788681457101 a44.86247066760136,44.86247066760136 0 0,0 0.19613555830358326,-0.7447586617490444 l 23.022658119118514 6.27492784757893" fill="red" stroke="none" /><path d="M 79.73907114497095 94.47779374421319 l -54.12271977084462 -14.751387946588105 a77.09698959609258,77.09698959609258 0 0,0 0.3589838047245806,-1.2739068800369506 l 53.861517474045456 15.678302750528069" fill="red" stroke="none" /><path d="M 79.83685265289637 94.1308016681162 l -22.052320922472408 -6.419109226562952 a43.96758196524527,43.96758196524527 0 0,0 0.2171656858084421,-0.722873938744851 l 21.938878916660336 6.796720768898527" fill="red" stroke="none" /><path d="M 80.16572619554312 93.10060997987247 l -21.181235155911036 -7.367933098504911 a43.42612674703427,43.42612674703427 0 0,0 0.25096130274620226,-0.7019834290661724 l 21.05163368312089 7.730451483952004" fill="red" stroke="none" /><path d="M 80.41425534168474 92.42381321644754 l -22.244927083966946 -8.604815671539304 a44.85119774166854,44.85119774166854 0 0,0 0.2839322693873081,-0.7156947971421705 l 22.093936139613504 8.985411485895058" fill="red" stroke="none" /><path d="M 80.5471966667186 92.08871423366112 l -27.85984270156648 -11.330355488674105 a51.075701003563566,51.075701003563566 0 0,0 0.337279985779834,-0.8093491834040081 l 27.661236871250168 11.806937181519377" fill="red" stroke="none" /><path d="M 81.1358732173502 90.77261029715801 l -19.804956468600036 -9.68759664781703 a43.047354252470704,43.047354252470704 0 0,0 0.33039887116276334,-0.6610190677549933 l 19.63573768422553 10.026147571735793" fill="red" stroke="none" /><path d="M 81.29705330413844 90.45014215332179 l -20.32103199856077 -10.376063731550678 a43.81681485325531,43.81681485325531 0 0,0 0.3478052132979363,-0.6669623563351522 l 20.13991871628789 10.723372330990316" fill="red" stroke="none" /><path d="M 81.46374523516351 90.13048839642627 l -20.1670333765516 -10.737809360341428 a43.84753345702731,43.84753345702731 0 0,0 0.35945508535827886,-0.6613568707892049 l 19.979732941577975 11.082421064605253" fill="red" stroke="none" /><path d="M 81.63589988554816 89.8137432299009 l -20.286246678236946 -11.25243906743207 a44.19804278935081,44.19804278935081 0 0,0 0.37371893955935553,-0.6603255571442321 l 20.090094373656218 11.599021394675406" fill="red" stroke="none" /><line stroke="#e1ed5e" stroke-width="0.3" x1="26.387840678322718" x2="22.05771365940052" y1="57.49999999999999" y2="54.99999999999999" /><path d="M 25.521815274538284 56.99999999999999 a86.0,86.0 0 0,1 29.574782752854787,-30.34633250058573" fill="none" id="id95" stroke="none" /><text fill="#e1ed5e" style="font-size:6.75px; font-family:Arial;" text-anchor="middle"><textPath startOffset="21.40746469413373" xlink:href="#id95">November</textPath></text><path d="M 81.81346652052679 89.5 l -8.902973082698468 -5.140133905883954 a31.280267811767906,31.280267811767906 0 0,0 0.2724753969977934,-0.46272279291380286 l 8.813423975570897 5.29220786709133" fill="red" stroke="none" /><path d="M 81.99639281039701 89.18935116829357 l -33.58907485517823 -20.16927435802602 a60.17940246808382,60.17940246808382 0 0,0 0.5394138773535916,-0.8810920301304278 l 33.237893013369245 20.742903504280985" fill="red" stroke="none" /><path d="M 83.2033758604659 87.39550010848427 l -16.70657532815154 -12.536925584686355 a41.88741636275691,41.88741636275691 0 0,0 0.43652277355839075,-0.5714223231572114 l 16.488900577238844 12.82186882108445" fill="red" stroke="none" /><path d="M 83.42222388311158 87.10902102172516 l -16.94270740592646 -13.174751755898004 a42.46227895803176,42.46227895803176 0 0,0 0.4523922492559122,-0.571582828446038 l 16.714048726028985 13.463654528258726" fill="red" stroke="none" /><path d="M 83.64595745247003 86.82634096563983 l -4.546097227127796 -3.6620141248364964 a26.837580616060137,26.837580616060137 0 0,0 0.2920864006542969,-0.35629791621382484 l 4.48256400723487 3.739514322748814" fill="red" stroke="none" /><path d="M 84.58840730492382 85.73525988315684 l -7.588017234505327 -7.023355469738517 a31.339512928830633,31.339512928830633 0 0,0 0.3688275139955801,-0.3916820385405241 l 7.466333886773476 7.152578968223552" fill="red" stroke="none" /><path d="M 86.68645165197937 83.75963576809568 l -4.6256725108288315 -5.642568339381613 a28.296260935714216,28.296260935714216 0 0,0 0.3782930218823202,-0.3047260804704269 l 4.528128718591265 5.721142713645439" fill="red" stroke="none" /><path d="M 87.83215693770416 82.88440491214696 l -5.832183767563913 -8.203696853461778 a31.065535731501562,31.065535731501562 0 0,0 0.4372916598832691,-0.30526354038030584 l 5.690497016506879 8.30260520964721" fill="red" stroke="none" /><path d="M 88.12776184653039 82.6780497279521 l -14.411332687380662 -21.026565078783605 a46.49123278381586,46.49123278381586 0 0,0 0.6621762045993459,-0.44554170243951136 l 14.048260194684328 21.270856455280224" fill="red" stroke="none" /><path d="M 88.4268655584334 82.4767994020092 l -10.459286207942812 -15.83669240679543 a39.97886968096664,39.97886968096664 0 0,0 0.5759134516483989,-0.3733001413695678 l 10.185887124037388 16.013906389868904" fill="red" stroke="none" /><path d="M 88.72937992617638 82.28071324371311 l -9.328072393292306 -14.665279153897986 a38.38054507880167,38.38054507880167 0 0,0 0.5589594019857883,-0.34883200729776126 l 9.07494886251682 14.823246958037283" fill="red" stroke="none" /><path d="M 89.03521579738668 82.08984904055464 l -16.055320665008296 -26.22515970210033 a51.749509314083525,51.749509314083525 0 0,0 0.7616227711051989,-0.4573325908490349 l 15.602765137345664 26.49690629348529" fill="red" stroke="none" /><line stroke="#e1ed5e" stroke-width="0.3" x1="56.869717070023135" x2="54.33264160355391" y1="26.7553504044142" y2="22.446841604673864" /><path d="M 56.362301976729285 25.89364864446614 a86.0,86.0 0 0,1 42.16139366436587,-11.88097634709845" fill="none" id="id96" stroke="none" /><text fill="#e1ed5e" style="font-size:6.75px; font-family:Arial;" text-anchor="middle"><textPath startOffset="22.145653131862474" xlink:href="#id96">December</textPath></text><path d="M 89.34428304082924 81.90426304109057 l -2.948185401294148 -5.006663346289511 a26.81020438741038,26.81020438741038 0 0,0 0.398587987997699,-0.2301248821662216 l 2.8618049454360497 5.056535125731908" fill="red" stroke="none" /><path d="M 89.65649057296885 81.72400993836675 l -10.54279082765826 -18.628101201766352 a42.40459279731815,42.40459279731815 0 0,0 0.6365854442013532,-0.35310321498626857 l 10.221461195300805 18.806337332185766" fill="red" stroke="none" /><path d="M 92.592206182469 80.34994680014964 l -9.079881517379455 -24.085464479667635 a46.74012135890156,46.74012135890156 0 0,0 0.7532078152788064,-0.2765883427857143 l 8.665084550446522 24.237783671462072" fill="red" stroke="none" /><path d="M 92.93061703081487 80.22567764915836 l -8.324018750104175 -23.283761926110966 a45.72696620258742,45.72696620258742 0 0,0 0.7414175263749612,-0.25790350242465504 l 7.92309545168421 23.42322386110421" fill="red" stroke="none" /><path d="M 93.27111125876988 80.10723608172694 l -8.18006337781128 -24.182903874490716 a46.52893019043037,46.52893019043037 0 0,0 0.7588143157998588,-0.24943733757085657 l 7.76372632436366 24.319762133463602" fill="red" stroke="none" /><path d="M 93.61358852112211 79.99465700312896 l -2.311192701520485 -7.239778219537163 a28.599736862000306,28.599736862000306 0 0,0 0.46898034694460644,-0.14529131029858824 l 2.1865717217042624 7.278386117642393" fill="red" stroke="none" /><path d="M 94.30408787586887 79.78721728523814 l -3.3660130271014794 -11.944792765256805 a33.41000072133552,33.41000072133552 0 0,0 0.5533628402698253,-0.15082150281078777 l 3.1604687858969767 12.000814762211732" fill="red" stroke="none" /><path d="M 94.6519064749342 79.69241777938228 l -6.850842843210211 -26.013766151800787 a47.900744916506326,47.900744916506326 0 0,0 0.7969650821137471,-0.2025854073656054 l 6.403272467871086 26.127536791001656" fill="red" stroke="none" /></svg>