<?xml version="1.0" encoding="utf-8" ?>
<svg baseProfile="full" height="200mm" version="1.1" viewBox="0,0,200,200" width="200mm" xmlns="http://www.w3.org/2000/svg" xmlns:ev="http://www.w3.org/2001/xml-events" xmlns:xlink="http://www.w3.org/1999/xlink"><defs /><rect fill="#1a1a1a" height="200" width="200" x="0" y="0" /><text alignment-baseline="middle" fill="#e1ed5e" style="dominant-baseline: central; font-size:9.0px; font-family:Arial;" text-anchor="middle" x="100.0" y="100.0">2018</text><line stroke="#e1ed5e" stroke-width="0.3" x1="100.0" x2="100.0" y1="15.0" y2="10.0" /><path d="M 100.0 14.0 a86.0,86.0 0 0,1 42.46469731375804,11.215312516191453" fill="none" id="id13" stroke="none" /><text fill="#e1ed5e" style="font-size:6.75px; font-family:Arial;" text-anchor="middle"><textPath startOffset="22.20632615414155" xlink:href="#id13">January</textPath></text><path d="M 102.88285421437855 79.19881850522331 l 8.4908447062558 -61.26553361522081 a82.851111978553,82.851111978553 0 0,0 1.4109584595004534,0.20793859974604573 l -9.54417214618491 61.1103005313138" fill="red" stroke="none" /><line stroke="#e1ed5e" stroke-width="0.3" x1="143.23703022742887" x2="145.7803849466894" y1="26.81831364943548" y2="22.513508569990506" /><path d="M 143.74570117128098 25.957352633546492 a86.0,86.0 0 0,1 28.547481713284135,27.462654790039103" fill="none" id="id14" stroke="none" /><text fill="#e1ed5e" style="font-size:6.75px; font-family:Arial;" text-anchor="middle"><textPath startOffset="19.985693538727396" xlink:href="#id14">February</textPath></text><line stroke="#e1ed5e" stroke-width="0.3" x1="172.23445277983987" x2="176.4835382374775" y1="55.19839476539836" y2="52.563006222186495" /><path d="M 173.08426987136738 54.67131705675599 a86.0,86.0 0 0,1 12.851231095245387,41.99856678651699" fill="none" id="id15" stroke="none" /><text fill="#e1ed5e" style="font-size:6.75px; font-family:Arial;" text-anchor="middle"><textPath startOffset="22.20632615414155" xlink:href="#id15">March</textPath></text><line stroke="#e1ed5e" stroke-width="0.3" x1="184.98032266829074" x2="189.97916517819016" y1="98.17113171792111" y2="98.06355123074" /><path d="M 185.9800911702706 98.14961562048488 a86.0,86.0 0 0,1 -9.607161424134198,41.387399972396054" fill="none" id="id16" stroke="none" /><text fill="#e1ed5e" style="font-size:6.75px; font-family:Arial;" text-anchor="middle"><textPath startOffset="21.466115282336823" xlink:href="#id16">April</textPath></text><line stroke="#e1ed5e" stroke-width="0.3" x1="174.80103733775053" x2="179.2010983576182" y1="140.37084112569926" y2="142.7455964860345" /><path d="M 175.68104954172406 140.8457921977663 a86.0,86.0 0 0,1 -30.038265399797805,32.042727171017184" fill="none" id="id17" stroke="none" /><text fill="#e1ed5e" style="font-size:6.75px; font-family:Arial;" text-anchor="middle"><textPath startOffset="22.206326154141568" xlink:href="#id17">May</textPath></text><line stroke="#e1ed5e" stroke-width="0.3" x1="143.8653032363475" x2="146.44561519142675" y1="172.8068346515853" y2="177.08958963109032" /><path d="M 144.38136562736335 173.6633856474863 a86.0,86.0 0 0,1 -40.68145358897372,12.25698825130547" fill="none" id="id18" stroke="none" /><text fill="#e1ed5e" style="font-size:6.75px; font-family:Arial;" text-anchor="middle"><textPath startOffset="21.466115282336833" xlink:href="#id18">June</textPath></text><line stroke="#e1ed5e" stroke-width="0.3" x1="102.19456741930631" x2="102.32365962044197" y1="184.97166512339345" y2="189.96999836594603" /><path d="M 102.22038585953345 185.97133177190398 a86.0,86.0 0 0,1 -42.740103519485714,-10.115201625700543" fill="none" id="id19" stroke="none" /><text fill="#e1ed5e" style="font-size:6.75px; font-family:Arial;" text-anchor="middle"><textPath startOffset="22.20632615414155" xlink:href="#id19">July</textPath></text><path d="M 99.45781275523022 120.99299961872073 l -1.2223110048224928 47.32677632261952 a68.34255803485665,68.34255803485665 0 0,0 -1.1757512063089672,-0.040495248843052625 l 2.0367825628061027 -47.298724275350374" fill="red" stroke="none" /><path d="M 98.01472825383883 120.90594882070398 l -4.411442824206465 46.454797982520006 a67.6637877094004,67.6637877094004 0 0,0 -1.1585567833571175,-0.12008914764784226 l 5.210432204169176 -46.3719794664164" fill="red" stroke="none" /><path d="M 96.93821686468263 120.77559828337769 l -7.272042612014076 49.34413357500876 a70.87711020116598,70.87711020116598 0 0,0 -1.2054648502344478,-0.1882688179698455 l 8.120343325857041 -49.211646449691806" fill="red" stroke="none" /><path d="M 91.40352486487194 119.15986991738527 l -16.208556331624536 36.125717341228786 a60.595261733871695,60.595261733871695 0 0,0 -0.9479753706869839,-0.435168997426607 l 16.82799969807894 -35.84136127346811" fill="red" stroke="none" /><path d="M 90.10565033884886 118.52300852407294 l -22.457443203008584 42.04211758469586 a68.66420466368604,68.66420466368604 0 0,0 -1.0377358191160406,-0.5658563098348358 l 23.177801833993264 -41.64932062310126" fill="red" stroke="none" /><line stroke="#e1ed5e" stroke-width="0.3" x1="58.666819895761336" x2="56.23545636021788" y1="174.27360380694188" y2="178.64263932499728" /><path d="M 58.180547188652646 175.14741091055294 a86.0,86.0 0 0,1 -31.652253787137756,-30.449443065178592" fill="none" id="id20" stroke="none" /><text fill="#e1ed5e" style="font-size:6.75px; font-family:Arial;" text-anchor="middle"><textPath startOffset="22.20632615414155" xlink:href="#id20">August</textPath></text><path d="M 88.8546689885994 117.79835938074946 l -26.09596826497922 41.673542140079086 a70.16994685972062,70.16994685972062 0 0,0 -1.0181933217884387,-0.6498591521150511 l 26.809443388814582 -41.21816855914023" fill="red" stroke="none" /><path d="M 86.79598089348748 116.32954008644616 l -29.85444211804508 36.921281724338996 a68.48124638578597,68.48124638578597 0 0,0 -0.9102457857506634,-0.7490703124551946 l 30.48555803234043 -36.40191629302662" fill="red" stroke="none" /><line stroke="#e1ed5e" stroke-width="0.3" x1="26.63291911575756" x2="22.317208475507996" y1="142.92168965132927" y2="145.44649492493687" /><path d="M 25.769776987707644 143.4266507060508 a86.0,86.0 0 0,1 -11.730757126820373,-40.83630448921669" fill="none" id="id21" stroke="none" /><text fill="#e1ed5e" style="font-size:6.75px; font-family:Arial;" text-anchor="middle"><textPath startOffset="21.46611528233685" xlink:href="#id21">September</textPath></text><line stroke="#e1ed5e" stroke-width="0.3" x1="15.007084014347285" x2="10.007500721073583" y1="101.09737516637583" y2="101.16192664675087" /><path d="M 14.007167355692545 101.11028546245083 a86.0,86.0 0 0,1 10.666146001902534,-42.60595125391555" fill="none" id="id22" stroke="none" /><text fill="#e1ed5e" style="font-size:6.75px; font-family:Arial;" text-anchor="middle"><textPath startOffset="22.20632615414155" xlink:href="#id22">October</textPath></text><line stroke="#e1ed5e" stroke-width="0.3" x1="26.266209847984257" x2="21.92892807433627" y1="57.711370442889674" y2="55.22380399835377" /><path d="M 25.39875349325466 57.213857153982495 a86.0,86.0 0 0,1 29.58750427330802,-30.492523968695096" fill="none" id="id23" stroke="none" /><text fill="#e1ed5e" style="font-size:6.75px; font-family:Arial;" text-anchor="middle"><textPath startOffset="21.46611528233685" xlink:href="#id23">November</textPath></text><path d="M 85.31137513191541 84.99185889309783 l -38.567159702880254 -39.40609690229887 a76.13860970881329,76.13860970881329 0 0,0 0.9445420779618747,-0.9086487306396146 l 37.88313438130595 40.0641287197008" fill="red" stroke="none" /><path d="M 86.37877921826538 84.01681056812374 l -30.054948166929513 -35.26658422286306 a67.33607527688457,67.33607527688457 0 0,0 0.8886517025591688,-0.7442202446384778 l 29.443438927411233 35.77870562489535" fill="red" stroke="none" /><path d="M 87.22198572758235 83.33499621200491 l -30.34925576927545 -39.58130360282602 a70.87741894533023,70.87741894533023 0 0,0 0.974577492006765,-0.7340315618691805 l 29.663432123510294 40.09785175420106" fill="red" stroke="none" /><line stroke="#e1ed5e" stroke-width="0.3" x1="56.762969772571076" x2="54.21961505331055" y1="26.818313649435495" y2="22.513508569990535" /><path d="M 56.25429882871897 25.957352633546506 a86.0,86.0 0 0,1 42.265352541879196,-11.944610805530505" fill="none" id="id24" stroke="none" /><text fill="#e1ed5e" style="font-size:6.75px; font-family:Arial;" text-anchor="middle"><textPath startOffset="22.20632615414155" xlink:href="#id24">December</textPath></text><path d="M 95.692805502759 79.44645832069477 l -2.86749792004034 -13.68344012619414 a34.98066801009793,34.98066801009793 0 0,0 0.5903963696217661,-0.11842795758544926 l 2.6315351409514376 13.7307720398568" fill="red" stroke="none" /><path d="M 96.04723909329186 79.375362276772 l -6.683953274527021 -34.875399271469796 a56.5101211729909,56.5101211729909 0 0,0 0.9569178474372502,-0.17487062015420876 l 6.082640305986878 34.985285372974744" fill="red" stroke="none" /><path d="M 98.91598698831166 79.02799685794201 l -1.3144383576498977 -25.429958007368235 a46.46390607217544,46.46390607217544 0 0,0 0.799088840046072,-0.034410446380414676 l 0.8765086852145016 25.448816180272843" fill="red" stroke="none" /><path d="M 99.27714615592234 79.0124445844662 l -2.0680416710593903 -60.044142434316136 a81.07974564714536,81.07974564714536 0 0,0 1.3952409762882039,-0.0360349580556866 l 1.0341740595763076 60.07084418451418" fill="red" stroke="none" /><path d="M 99.63851952072746 79.00311137660856 l -1.0844414378176228 -62.990665870174325 a84.0,84.0 0 0,0 1.445921917090143,-0.012445506434235476 l 1.543054966925665e-14 63.0" fill="red" stroke="none" /></svg>