<?xml version="1.0" encoding="utf-8" ?>
<svg baseProfile="full" height="200mm" version="1.1" viewBox="0,0,200,200" width="200mm" xmlns="http://www.w3.org/2000/svg" xmlns:ev="http://www.w3.org/2001/xml-events" xmlns:xlink="http://www.w3.org/1999/xlink"><defs /><rect fill="#1a1a1a" height="200" width="200" x="0" y="0" /><text alignment-baseline="middle" fill="#e1ed5e" style="dominant-baseline: central; font-size:9.0px; font-family:Arial;" text-anchor="middle" x="100.0" y="100.0">2020</text><line stroke="#e1ed5e" stroke-width="0.3" x1="100.0" x2="100.0" y1="15.0" y2="10.0" /><path d="M 100.0 14.0 a86.0,86.0 0 0,1 42.35913384403234,11.155469271406648" fill="none" id="id37" stroke="none" /><text fill="#e1ed5e" style="font-size:6.75px; font-family:Arial;" text-anchor="middle"><textPath startOffset="22.145653131862478" xlink:href="#id37">January</textPath></text><line stroke="#e1ed5e" stroke-width="0.3" x1="143.13028292997686" x2="145.6673583964461" y1="26.7553504044142" y2="22.446841604673864" /><path d="M 143.63769802327073 25.89364864446614 a86.0,86.0 0 0,1 29.32050498858742,28.57503671076993" fill="none" id="id38" stroke="none" /><text fill="#e1ed5e" style="font-size:6.75px; font-family:Arial;" text-anchor="middle"><textPath startOffset="20.669276256404974" xlink:href="#id38">February</textPath></text><line stroke="#e1ed5e" stroke-width="0.3" x1="172.87174338648825" x2="177.1583165268699" y1="56.24261187166439" y2="53.66864786411523" /><path d="M 173.72905801456457 55.72781907015455 a86.0,86.0 0 0,1 12.242430191666344,42.057860355516425" fill="none" id="id39" stroke="none" /><text fill="#e1ed5e" style="font-size:6.75px; font-family:Arial;" text-anchor="middle"><textPath startOffset="22.145653131862474" xlink:href="#id39">March</textPath></text><line stroke="#e1ed5e" stroke-width="0.3" x1="184.99686870605535" x2="189.99668451229388" y1="99.2704041080226" y2="99.22748670261217" /><path d="M 185.99683186730306 99.26182062694052 a86.0,86.0 0 0,1 -10.086455211305974,41.156179273409016" fill="none" id="id40" stroke="none" /><text fill="#e1ed5e" style="font-size:6.75px; font-family:Arial;" text-anchor="middle"><textPath startOffset="21.40746469413373" xlink:href="#id40">April</textPath></text><line stroke="#e1ed5e" stroke-width="0.3" x1="174.33088141563837" x2="178.70328620479359" y1="141.23008692659167" y2="143.65538615756765" /><path d="M 175.20536237346943 141.71514677278685 a86.0,86.0 0 0,1 -30.301960400862466,31.631185727798858" fill="none" id="id41" stroke="none" /><text fill="#e1ed5e" style="font-size:6.75px; font-family:Arial;" text-anchor="middle"><textPath startOffset="22.145653131862474" xlink:href="#id41">May</textPath></text><line stroke="#e1ed5e" stroke-width="0.3" x1="143.1302829299769" x2="145.66735839644613" y1="173.24464959558577" y2="177.55315839532614" /><path d="M 143.63769802327073 174.10635135553383 a86.0,86.0 0 0,1 -40.68552437913181,11.842963189579606" fill="none" id="id42" stroke="none" /><text fill="#e1ed5e" style="font-size:6.75px; font-family:Arial;" text-anchor="middle"><textPath startOffset="21.407464694133747" xlink:href="#id42">June</textPath></text><line stroke="#e1ed5e" stroke-width="0.3" x1="101.45913802915013" x2="101.54496967792366" y1="184.9874750549273" y2="189.98673829345242" /><path d="M 101.47630435890484 185.9873277026323 a86.0,86.0 0 0,1 -42.54439059252881,-10.42667462771756" fill="none" id="id43" stroke="none" /><text fill="#e1ed5e" style="font-size:6.75px; font-family:Arial;" text-anchor="middle"><textPath startOffset="22.145653131862474" xlink:href="#id43">July</textPath></text><path d="M 93.95794788825049 120.11202640906438 l -6.613679900623425 22.014789406363068 a43.98677259717914,43.98677259717914 0 0,0 -0.721297960646856,-0.22345995200190752 l 6.9906184941419145 -21.89801286655451" fill="red" stroke="none" /><path d="M 93.61358852112213 120.00534299687104 l -16.41636430834353 51.42402738003786 a74.98080778468528,74.98080778468528 0 0,0 -1.2228200847171322,-0.401965250139619 l 17.29670713070841 -51.13464120849623" fill="red" stroke="none" /><path d="M 92.25597844496254 119.51999308798841 l -21.28521427804622 53.65264451175774 a78.72059086640911,78.72059086640911 0 0,0 -1.2518281015376118,-0.5091075909174384 l 22.203096840774272 -53.27934966426101" fill="red" stroke="none" /><line stroke="#e1ed5e" stroke-width="0.3" x1="58.13341422392154" x2="55.670673884152215" y1="173.97424548756322" y2="178.32567169271397" /><path d="M 57.64086615596767 174.84453072859336 a86.0,86.0 0 0,1 -31.369924170532244,-30.572349798747897" fill="none" id="id44" stroke="none" /><text fill="#e1ed5e" style="font-size:6.75px; font-family:Arial;" text-anchor="middle"><textPath startOffset="22.145653131862474" xlink:href="#id44">August</textPath></text><path d="M 89.03521579738668 117.91015095944536 l -32.24027276995656 52.66206261916167 a82.74729166194828,82.74729166194828 0 0,0 -1.2050995255106527,-0.7520712326941812 l 33.139536424256924 -52.100855589625944" fill="red" stroke="none" /><path d="M 88.4268655584334 117.5232005979908 l -33.6237081430582 50.91057963717469 a82.01180925265751,82.01180925265751 0 0,0 -1.1680969793976377,-0.7859477782505967 l 34.49270141055284 -50.32588218486697" fill="red" stroke="none" /><path d="M 87.2517909369889 116.68781488649013 l -37.770234697895795 49.44244966036781 a83.21853789307602,83.21853789307602 0 0,0 -1.1277699193507549,-0.8769607105425189 l 38.613414561881775 -48.786787898204494" fill="red" stroke="none" /><path d="M 86.40962598614128 116.0094264158162 l -38.93551341200569 45.86593689738682 a81.16359673533111,81.16359673533111 0 0,0 -1.0544330802690602,-0.9107941809975183 l 39.717125972037614 -45.190798583924575" fill="red" stroke="none" /><path d="M 84.83555147118756 114.52719865689866 l -42.848486343338564 41.04788064494394 a80.33735153642127,80.33735153642127 0 0,0 -0.9454717983479233,-1.0040582855321618 l 43.546813975422744 -40.30628089946729" fill="red" stroke="none" /><line stroke="#e1ed5e" stroke-width="0.3" x1="26.387840678322732" x2="22.057713659400548" y1="142.50000000000003" y2="145.00000000000006" /><path d="M 25.521815274538298 143.00000000000003 a86.0,86.0 0 0,1 -11.493303480769221,-40.785679425670985" fill="none" id="id45" stroke="none" /><text fill="#e1ed5e" style="font-size:6.75px; font-family:Arial;" text-anchor="middle"><textPath startOffset="21.40746469413373" xlink:href="#id45">September</textPath></text><path d="M 79.48165901384964 104.47187691870673 l -14.974120246476092 3.263539813153237 a36.3256311213588,36.3256311213588 0 0,0 -0.12755881879231531,-0.6104151247334418 l 15.027936776092774 -3.0060082371343864" fill="red" stroke="none" /><path d="M 79.22317932658666 103.0534771498775 l -61.96818900523717 9.107189791983494 a83.63383554035315,83.63383554035315 0 0,0 -0.19656135168742747,-1.4222200238824436 l 62.11539487347981 -8.042081459900965" fill="red" stroke="none" /><line stroke="#e1ed5e" stroke-width="0.3" x1="15.003131293944662" x2="10.003315487706104" y1="100.72959589197737" y2="100.7725132973878" /><path d="M 14.003168132696942 100.73817937305945 a86.0,86.0 0 0,1 10.791469493833615,-42.45332614584628" fill="none" id="id46" stroke="none" /><text fill="#e1ed5e" style="font-size:6.75px; font-family:Arial;" text-anchor="middle"><textPath startOffset="22.145653131862435" xlink:href="#id46">October</textPath></text><line stroke="#e1ed5e" stroke-width="0.3" x1="26.387840678322718" x2="22.05771365940052" y1="57.49999999999999" y2="54.99999999999999" /><path d="M 25.521815274538284 56.99999999999999 a86.0,86.0 0 0,1 29.574782752854787,-30.34633250058573" fill="none" id="id47" stroke="none" /><text fill="#e1ed5e" style="font-size:6.75px; font-family:Arial;" text-anchor="middle"><textPath startOffset="21.40746469413373" xlink:href="#id47">November</textPath></text><line stroke="#e1ed5e" stroke-width="0.3" x1="56.869717070023135" x2="54.33264160355391" y1="26.7553504044142" y2="22.446841604673864" /><path d="M 56.362301976729285 25.89364864446614 a86.0,86.0 0 0,1 42.16139366436587,-11.88097634709845" fill="none" id="id48" stroke="none" /><text fill="#e1ed5e" style="font-size:6.75px; font-family:Arial;" text-anchor="middle"><textPath startOffset="22.145653131862474" xlink:href="#id48">December</textPath></text><path d="M 91.92203290615298 80.6158196554323 l -24.233901281541083 -58.15254103370309 a84.0,84.0 0 0,0 1.3357821552382365,-0.5432509736828348 l 23.232064665112404 58.55997926396521" fill="red" stroke="none" /><path d="M 93.95794788825049 79.88797359093562 l -16.85718979622853 -56.11210232779512 a79.58952871862874,79.58952871862874 0 0,0 1.3118627850104052,-0.3818641374234511 l 15.891466998836501 56.39321015952109" fill="red" stroke="none" /></svg>